<svg xmlns="http://www.w3.org/2000/svg" xml:space="preserve" width="64" height="64">
    <path d="M64 14.588A3.6 3.6 0 0 0 60.413 11H3.587A3.6 3.6 0 0 0 0 14.588v34.728a3.6 3.6 0 0 0 3.587 3.588h56.826A3.6 3.6 0 0 0 64 49.316z" style="fill:#00a8e1;stroke-width:.125"/>
    <path d="M0 29.518h64v8.213H0Z" style="fill:#0071ce;stroke-width:.125"/>
    <path d="M57.782 28.652A2.16 2.16 0 0 0 55.63 26.5h-8.132a2.16 2.16 0 0 0-2.152 2.152v3.885c0 1.184.968 2.153 2.152 2.153h8.132a2.16 2.16 0 0 0 2.152-2.153z" style="fill:#ff9e16;stroke-width:.125"/>
    <path d="M47.014 26.557a2.16 2.16 0 0 0-1.668 2.095v3.885a2.16 2.16 0 0 0 1.668 2.095 4.447 4.447 0 0 0 0-8.075m9.1 0a2.16 2.16 0 0 1 1.668 2.095v3.885a2.16 2.16 0 0 1-1.668 2.095 4.448 4.448 0 0 1 0-8.075m-37.961 18.31a1.44 1.44 0 0 0-1.435-1.435H9.399a1.44 1.44 0 0 0-1.434 1.435v1.148c0 .79.645 1.435 1.434 1.435h7.319a1.44 1.44 0 0 0 1.435-1.435zm12.627 0a1.44 1.44 0 0 0-1.435-1.435h-7.318a1.44 1.44 0 0 0-1.435 1.435v1.148c0 .79.646 1.435 1.435 1.435h7.318a1.44 1.44 0 0 0 1.435-1.435zm12.628 0a1.44 1.44 0 0 0-1.435-1.435h-7.318a1.44 1.44 0 0 0-1.435 1.435v1.148c0 .79.646 1.435 1.435 1.435h7.318c.79 0 1.435-.646 1.435-1.435zm12.628 0a1.44 1.44 0 0 0-1.435-1.435h-7.319a1.44 1.44 0 0 0-1.434 1.435v1.148c0 .79.645 1.435 1.434 1.435h7.319c.79 0 1.435-.646 1.435-1.435z" style="fill:#fff;stroke-width:.125"/>
    <path d="M33.22 21.802a2.16 2.16 0 0 1-2.152 2.152H10.117a2.16 2.16 0 0 1-2.152-2.152V19.65c0-1.184.968-2.153 2.152-2.153h20.95c1.185 0 2.153.969 2.153 2.153z" style="fill:#333e48;stroke-width:.125"/>
</svg>
