<svg xmlns="http://www.w3.org/2000/svg" xml:space="preserve" width="512.003" height="335.231">
    <path d="M512 28.7C512 12.916 499.086 0 483.302 0H28.699C12.914.001 0 12.916 0 28.7v277.831c0 15.784 12.914 28.7 28.699 28.7H483.3c15.784 0 28.699-12.915 28.699-28.7z" style="fill:#009ee0;fill-opacity:1"/>
    <path d="M0 148.143h512.003v65.706H0Z" style="fill:#0071ce"/>
    <path d="M462.255 141.216c0-9.471-7.748-17.219-17.219-17.219h-65.052c-9.471 0-17.219 7.748-17.219 17.219v31.08c0 9.471 7.748 17.22 17.219 17.22h65.052c9.471 0 17.219-7.748 17.219-17.22z" style="fill:#f60;fill-opacity:1"/>
    <path d="M376.108 124.456c-7.617 1.772-13.343 8.623-13.343 16.76v31.08c0 8.138 5.726 14.988 13.343 16.76 12.191-5.645 20.65-17.981 20.65-32.3.001-14.317-8.459-26.653-20.65-32.3m72.804 0c7.618 1.772 13.343 8.623 13.343 16.76v31.08c0 8.138-5.726 14.988-13.343 16.76-12.19-5.645-20.651-17.981-20.651-32.3-.001-14.317 8.459-26.653 20.651-32.3m-303.69 146.481c0-6.315-5.166-11.481-11.479-11.481H75.195c-6.315 0-11.479 5.166-11.479 11.481v9.183c0 6.315 5.166 11.479 11.479 11.479h58.547c6.313 0 11.479-5.166 11.479-11.479v-9.183zm101.02 0c0-6.315-5.166-11.481-11.481-11.481h-58.546c-6.315 0-11.481 5.166-11.481 11.481v9.183c0 6.315 5.166 11.479 11.481 11.479h58.546c6.313 0 11.481-5.166 11.481-11.479zm101.021 0c0-6.315-5.166-11.481-11.479-11.481h-58.546c-6.313 0-11.479 5.166-11.479 11.481v9.183c0 6.315 5.166 11.479 11.479 11.479h58.546c6.315 0 11.479-5.166 11.479-11.479zm101.021 0c0-6.315-5.166-11.481-11.479-11.481h-58.547c-6.313 0-11.479 5.166-11.479 11.481v9.183c0 6.315 5.166 11.479 11.479 11.479h58.547c6.315 0 11.479-5.166 11.479-11.479z" style="fill:#fff"/>
    <path d="M265.761 86.416c0 9.471-7.748 17.219-17.219 17.219H80.935c-9.471 0-17.219-7.748-17.219-17.219v-17.22c0-9.471 7.748-17.219 17.219-17.219h167.607c9.471 0 17.219 7.748 17.219 17.219z" style="fill:#3c3c38;fill-opacity:1"/>
</svg>
